# xmcd CD database file
#
# Track frame offsets:
#	150
#	3145
#	11950
#	33990
#	83575
#	106777
#	126622
#	183262
#	212557
#	261737
#	284180
#	312570
#
# Disc length: 4420 seconds
#
# Revision: 1
# Processed by: cddbd v1.5.2PL0 Copyright (c) Steve Scherf et al.
# Submitted via: CDex 1.70beta2
#
DISCID=ad11420c
DTITLE=First Blow Job - Smart Metal Hornets
DYEAR=1993
DGENRE=Jazz
TTITLE0=S Gate
TTITLE1=Fuge In S#
TTITLE2=Penthouse Rock
TTITLE3=Cracy Cat
TTITLE4=Groovin' Low
TTITLE5=Gaint Waltz
TTITLE6=M.G.-Lady
TTITLE7=Smart Max
TTITLE8=Suite for Jimi
TTITLE9=Formic Acid
TTITLE10=Downhill Walk
TTITLE11=Bloodsucker
EXTD=YEAR: 1993
EXTT0=
EXTT1=
EXTT2=
EXTT3=
EXTT4=
EXTT5=
EXTT6=
EXTT7=
EXTT8=
EXTT9=
EXTT10=
EXTT11=
PLAYORDER=
